<?xml version="1.0" standalone="no"?>
<!DOCTYPE svg PUBLIC "-//W3C//DTD SVG 20010904//EN"
 "http://www.w3.org/TR/2001/REC-SVG-20010904/DTD/svg10.dtd">
<svg version="1.0" xmlns="http://www.w3.org/2000/svg"
 width="1573.000000pt" height="1717.000000pt" viewBox="0 0 1573.000000 1717.000000"
 preserveAspectRatio="xMidYMid meet">

<g transform="translate(0.000000,1717.000000) scale(0.100000,-0.100000)"
fill="#000000" stroke="none">
<path d="M7605 17143 c-314 -25 -454 -43 -646 -82 -340 -70 -687 -190 -994
-343 -704 -352 -1367 -969 -1787 -1661 -312 -514 -499 -1077 -570 -1712 -21
-189 -18 -820 5 -1005 123 -988 523 -1801 1237 -2510 599 -596 1284 -979 2046
-1145 348 -76 577 -99 974 -99 476 0 805 44 1225 163 809 229 1566 747 2144
1466 481 598 773 1275 875 2030 38 283 50 724 27 1000 -86 1012 -477 1862
-1196 2603 -845 872 -1889 1310 -3100 1300 -110 -1 -218 -3 -240 -5z"/>
<path d="M3540 9279 c-618 -57 -1146 -254 -1632 -609 -135 -98 -416 -378 -551
-549 -260 -328 -505 -756 -690 -1201 -369 -890 -614 -2219 -642 -3475 -3 -132
-7 -308 -10 -391 -6 -191 10 -508 35 -686 91 -648 344 -1163 773 -1575 455
-437 1022 -684 1752 -765 178 -19 10412 -19 10590 0 543 60 1005 216 1380 467
167 111 244 173 389 315 212 206 362 412 491 675 232 472 316 938 300 1660
-19 874 -70 1438 -191 2109 -155 861 -352 1489 -651 2079 -217 428 -450 761
-738 1056 -227 233 -447 395 -735 544 -431 223 -887 339 -1385 354 -188 5
-191 5 -255 -21 -93 -38 -230 -120 -610 -366 -755 -487 -860 -548 -1200 -693
-1013 -432 -1921 -557 -2879 -396 -551 92 -1264 342 -1746 612 -82 46 -552
345 -902 573 -204 134 -356 223 -443 261 -74 32 -77 33 -220 32 -80 -1 -183
-5 -230 -10z"/>
</g>
</svg>
